<svg width="399" height="451" viewBox="0 0 399 451" fill="none" xmlns="http://www.w3.org/2000/svg">
<path d="M0.0419977 39.8193C0.0419977 17.8558 17.9156 0 39.9009 0C61.8862 0 79.7598 17.8558 79.7598 39.8193C79.7598 56.5854 69.3126 70.9622 54.5858 76.7884V155.17L487.999 425.438L472.853 450.587L25.174 171.768V76.7884C10.4472 70.9203 0 56.5854 0 39.8193H0.0419977ZM39.9009 54.4896C47.9986 54.4896 54.5858 47.9089 54.5858 39.8193C54.5858 31.7297 47.9986 25.149 39.9009 25.149C31.8033 25.149 25.216 31.7297 25.216 39.8193C25.216 47.9089 31.8033 54.4896 39.9009 54.4896Z" fill="#8F2CE5"/>
</svg>
