<svg width="243" height="463" viewBox="0 0 243 463" fill="none" xmlns="http://www.w3.org/2000/svg">
<path d="M242.031 39.8193C242.031 17.8558 224.157 0 202.172 0C180.186 0 162.313 17.8558 162.313 39.8193C162.313 57.256 173.641 72.0939 189.291 77.4591L189.543 218.964L-124 438.893L-106.504 462.449L218.954 233.719L218.661 76.034C232.423 69.7467 242.031 55.9147 242.031 39.8193ZM202.172 25.149C210.269 25.149 216.857 31.7297 216.857 39.8193C216.857 47.9089 210.269 54.4896 202.172 54.4896C194.074 54.4896 187.487 47.9089 187.487 39.8193C187.487 31.7297 194.074 25.149 202.172 25.149Z" fill="#8F2CE5"/>
</svg>
