<svg width="288" height="407" viewBox="0 0 288 407" fill="none" xmlns="http://www.w3.org/2000/svg">
<path d="M54.5438 106.967V76.7884C69.2706 70.9203 79.7178 56.5854 79.7178 39.8193C79.7178 17.8558 61.8442 0 39.8589 0C17.8736 0 0 17.8558 0 39.8193C0 56.5854 10.4472 70.9622 25.174 76.7884V123.566L495.929 406.576L511.033 381.427L54.5438 106.967ZM39.8589 25.149C47.9566 25.149 54.5438 31.7297 54.5438 39.8193C54.5438 47.9089 47.9566 54.4896 39.8589 54.4896C31.7613 54.4896 25.174 47.9089 25.174 39.8193C25.174 31.7297 31.7613 25.149 39.8589 25.149Z" fill="#8F2CE5"/>
</svg>
