<svg width="60" height="69" viewBox="0 0 60 69" fill="none" xmlns="http://www.w3.org/2000/svg">
<g id="Group 2">
<path id="Vector" d="M48.7607 32.0331L45.2473 38.7101C44.0203 41.051 43.2396 43.5925 42.9384 46.212L42.4811 50.2918C42.3584 51.4176 41.3992 52.2759 40.2615 52.2759H19.716C18.5783 52.2759 17.619 51.4176 17.4964 50.2918L17.039 46.212C16.749 43.5925 15.9683 41.0398 14.7302 38.7101L11.2167 32.0331H11.2279C9.66631 29.0903 8.78516 25.7351 8.78516 22.1792C8.80746 10.486 18.2994 1 29.9999 1C41.7003 1 51.1923 10.486 51.1923 22.1792C51.1923 25.8354 50.2665 29.2686 48.6269 32.2672L48.7607 32.0331Z" stroke="#A82EFF" stroke-width="2" stroke-linecap="round" stroke-linejoin="round"/>
<path id="Vector_2" d="M40.0385 52.2759V59.8224C40.0385 61.316 39.2912 62.7206 38.042 63.5454L32.6993 67.079C31.0708 68.1603 28.9404 68.1603 27.3119 67.079L21.9692 63.5454C20.72 62.7206 19.9727 61.3272 19.9727 59.8224V52.2759" stroke="#A82EFF" stroke-width="2" stroke-linecap="round" stroke-linejoin="round"/>
<path id="Vector_3" d="M40.0388 55.6201L24.4233 57.8495" stroke="#A82EFF" stroke-width="2" stroke-linecap="round" stroke-linejoin="round"/>
<path id="Vector_4" d="M35.5772 61.1934L21.501 63.1998" stroke="#A82EFF" stroke-width="2" stroke-linecap="round" stroke-linejoin="round"/>
<path id="Vector_5" d="M23.3076 47.8169V23.2937L30 12.1467L36.6923 23.2937V47.8169" stroke="#A82EFF" stroke-width="2" stroke-linecap="round" stroke-linejoin="round"/>
<path id="Vector_6" d="M23.3076 23.2939L30 26.638L36.6923 23.2939" stroke="#A82EFF" stroke-width="2" stroke-linecap="round" stroke-linejoin="round"/>
<path id="Vector_7" d="M33.2349 17.531C32.4876 18.2337 31.283 18.6464 30.0003 18.6464C28.7176 18.6464 27.5129 18.2337 26.7656 17.531" stroke="#A82EFF" stroke-width="2" stroke-linecap="round" stroke-linejoin="round"/>
<path id="Vector_8" d="M30 26.6379V47.8171" stroke="#A82EFF" stroke-width="2" stroke-linecap="round" stroke-linejoin="round"/>
<path id="Vector_9" d="M55.7769 15.291L59.0003 14.4321" stroke="#A82EFF" stroke-width="2" stroke-linecap="round" stroke-linejoin="round"/>
<path id="Vector_10" d="M4.22348 29.0681L1 29.927" stroke="#A82EFF" stroke-width="2" stroke-linecap="round" stroke-linejoin="round"/>
<path id="Vector_11" d="M55.7769 29.0681L59.0003 29.927" stroke="#A82EFF" stroke-width="2" stroke-linecap="round" stroke-linejoin="round"/>
<path id="Vector_12" d="M4.22348 15.291L1 14.4321" stroke="#A82EFF" stroke-width="2" stroke-linecap="round" stroke-linejoin="round"/>
<path id="Vector_13" d="M48.8726 41.0066L51.226 43.3586" stroke="#A82EFF" stroke-width="2" stroke-linecap="round" stroke-linejoin="round"/>
<path id="Vector_14" d="M11.1279 3.352L8.77441 1" stroke="#A82EFF" stroke-width="2" stroke-linecap="round" stroke-linejoin="round"/>
<path id="Vector_15" d="M48.8726 3.352L51.226 1" stroke="#A82EFF" stroke-width="2" stroke-linecap="round" stroke-linejoin="round"/>
<path id="Vector_16" d="M11.1279 41.0066L8.77441 43.3586" stroke="#A82EFF" stroke-width="2" stroke-linecap="round" stroke-linejoin="round"/>
</g>
</svg>
