<svg width="70" height="69" viewBox="0 0 70 69" fill="none" xmlns="http://www.w3.org/2000/svg">
<path d="M34.9522 67.8902C53.4231 67.8902 68.3968 52.9166 68.3968 34.4456C68.3968 15.9746 53.4231 1.00098 34.9522 1.00098C16.4812 1.00098 1.50757 15.9746 1.50757 34.4456C1.50757 52.9166 16.4812 67.8902 34.9522 67.8902Z" stroke="#A82EFF" stroke-width="2" stroke-miterlimit="10"/>
<path d="M34.951 67.8893C42.6796 67.8893 48.9448 52.9156 48.9448 34.4446C48.9448 15.9737 42.6796 1 34.951 1C27.2225 1 20.9573 15.9737 20.9573 34.4446C20.9573 52.9156 27.2225 67.8893 34.951 67.8893Z" stroke="#A82EFF" stroke-width="2" stroke-miterlimit="10"/>
<path d="M59.8826 13.5071C53.7589 16.9288 44.8623 19.0822 34.9569 19.0822C25.0516 19.0822 16.1491 16.9288 10.0254 13.5071" stroke="#A82EFF" stroke-width="2" stroke-miterlimit="10"/>
<path d="M10.0254 55.3822C16.1491 51.9605 25.0457 49.8071 34.951 49.8071C44.8564 49.8071 53.7707 51.9605 59.8944 55.3881" stroke="#A82EFF" stroke-width="2" stroke-miterlimit="10"/>
<path d="M1.50635 34.4446H68.4015" stroke="#A82EFF" stroke-width="2" stroke-miterlimit="10"/>
</svg>
