<svg width="60" height="69" viewBox="0 0 60 69" fill="none" xmlns="http://www.w3.org/2000/svg">
<g id="Group 2">
<path id="Vector" d="M48.761 32.0525L45.2475 38.7337C44.0206 41.076 43.2398 43.6191 42.9387 46.2402L42.4813 50.3226C42.3587 51.4491 41.3994 52.308 40.2617 52.308H19.7162C18.5785 52.308 17.6193 51.4491 17.4966 50.3226L17.0393 46.2402C16.7493 43.6191 15.9685 41.0648 14.7304 38.7337L11.217 32.0525H11.2281C9.66656 29.1078 8.7854 25.7505 8.7854 22.1924C8.80771 10.492 18.2997 1 30.0001 1C41.7006 1 51.1925 10.492 51.1925 22.1924C51.1925 25.8509 50.2668 29.2863 48.6271 32.2867L48.761 32.0525Z" stroke="#A82EFF" stroke-width="2" stroke-linecap="round" stroke-linejoin="round"/>
<path id="Vector_2" d="M40.0385 52.3079V59.8591C40.0385 61.3537 39.2912 62.7591 38.042 63.5845L32.6993 67.1202C31.0708 68.2022 28.9404 68.2022 27.3119 67.1202L21.9692 63.5845C20.72 62.7591 19.9727 61.3648 19.9727 59.8591V52.3079" stroke="#A82EFF" stroke-width="2" stroke-linecap="round" stroke-linejoin="round"/>
<path id="Vector_3" d="M40.0386 55.6543L24.4231 57.8851" stroke="#A82EFF" stroke-width="2" stroke-linecap="round" stroke-linejoin="round"/>
<path id="Vector_4" d="M35.577 61.231L21.5007 63.2387" stroke="#A82EFF" stroke-width="2" stroke-linecap="round" stroke-linejoin="round"/>
<path id="Vector_5" d="M23.3076 47.8463V23.3077L30 12.1538L36.6923 23.3077V47.8463" stroke="#A82EFF" stroke-width="2" stroke-linecap="round" stroke-linejoin="round"/>
<path id="Vector_6" d="M23.3076 23.3079L30 26.654L36.6923 23.3079" stroke="#A82EFF" stroke-width="2" stroke-linecap="round" stroke-linejoin="round"/>
<path id="Vector_7" d="M33.2349 17.5413C32.4876 18.244 31.283 18.6567 30.0003 18.6567C28.7176 18.6567 27.5129 18.244 26.7656 17.5413" stroke="#A82EFF" stroke-width="2" stroke-linecap="round" stroke-linejoin="round"/>
<path id="Vector_8" d="M30.0002 26.6541V47.8465" stroke="#A82EFF" stroke-width="2" stroke-linecap="round" stroke-linejoin="round"/>
<path id="Vector_9" d="M55.7766 15.2993L59.0001 14.4404" stroke="#A82EFF" stroke-width="2" stroke-linecap="round" stroke-linejoin="round"/>
<path id="Vector_10" d="M4.22348 29.0857L1 29.9445" stroke="#A82EFF" stroke-width="2" stroke-linecap="round" stroke-linejoin="round"/>
<path id="Vector_11" d="M55.7766 29.0857L59.0001 29.9445" stroke="#A82EFF" stroke-width="2" stroke-linecap="round" stroke-linejoin="round"/>
<path id="Vector_12" d="M4.22348 15.2993L1 14.4404" stroke="#A82EFF" stroke-width="2" stroke-linecap="round" stroke-linejoin="round"/>
<path id="Vector_13" d="M48.8726 41.0315L51.226 43.385" stroke="#A82EFF" stroke-width="2" stroke-linecap="round" stroke-linejoin="round"/>
<path id="Vector_14" d="M11.1276 3.35347L8.77417 1" stroke="#A82EFF" stroke-width="2" stroke-linecap="round" stroke-linejoin="round"/>
<path id="Vector_15" d="M48.8726 3.35347L51.226 1" stroke="#A82EFF" stroke-width="2" stroke-linecap="round" stroke-linejoin="round"/>
<path id="Vector_16" d="M11.1276 41.0315L8.77417 43.385" stroke="#A82EFF" stroke-width="2" stroke-linecap="round" stroke-linejoin="round"/>
</g>
</svg>
