<svg width="54" height="67" viewBox="0 0 54 67" fill="none" xmlns="http://www.w3.org/2000/svg">
<g clip-path="url(#clip0_141_58)">
<path d="M49.9656 31.0786C47.5499 28.2061 44.201 26.5895 40.266 26.3888V21.0736C40.266 19.5198 39.0027 18.2566 37.4489 18.2566H2.81704C1.26324 18.2566 0 19.5198 0 21.0736V64.0717C0 65.6255 1.26324 66.8888 2.81704 66.8888H37.4489C39.0027 66.8888 40.266 65.6255 40.266 64.0717V58.0572C43.7959 57.8331 47.0882 56.1845 49.5667 53.3945C52.215 50.4125 53.674 46.4467 53.674 42.2261C53.674 38.0054 52.3566 33.9215 49.9656 31.0786ZM40.266 49.7316V34.1295C43.4253 34.638 45.8521 37.987 45.8521 41.9306C45.8521 45.8742 43.4253 49.2219 40.266 49.7316ZM40.266 51.8456C42.247 51.6228 44.0926 50.6058 45.4913 48.9584C47.0734 47.0943 47.9451 44.5987 47.9451 41.9306C47.9451 39.2625 47.0734 36.7668 45.4913 34.9028C44.0926 33.2566 42.247 32.2384 40.266 32.0155V28.4831C43.8218 28.6863 46.7558 30.213 48.7651 32.9119C50.5812 35.3509 51.5809 38.658 51.5809 42.2249C51.5809 45.7917 50.3706 49.1911 48.1741 51.7718C46.0675 54.2465 43.2702 55.724 40.266 55.9579V51.8444V51.8456ZM2.09308 21.0749C2.09308 20.6759 2.41813 20.3509 2.81704 20.3509H37.4489C37.8479 20.3509 38.1729 20.6759 38.1729 21.0749V64.0729C38.1729 64.4719 37.8479 64.7969 37.4489 64.7969H2.81704C2.41813 64.7969 2.09308 64.4719 2.09308 64.0729V21.0749Z" fill="#A82EFF"/>
<path d="M27.5929 48.2875C27.8502 48.2875 28.099 48.1927 28.291 48.0203L32.2371 44.4818C32.8798 43.9056 33.2627 43.0794 33.2861 42.2176C33.3095 41.3545 32.9734 40.5099 32.3627 39.8992L28.6407 36.1772C28.4437 35.979 28.1802 35.8706 27.9007 35.8706C27.6212 35.8706 27.359 35.979 27.1608 36.1772C26.7532 36.5847 26.7532 37.2496 27.1608 37.6571L30.8828 41.3791C31.0884 41.5847 31.2016 41.8704 31.1943 42.1609C31.1869 42.4515 31.0576 42.7298 30.8409 42.9243L26.8948 46.4628C26.4651 46.8482 26.4294 47.5106 26.8148 47.9403C27.013 48.1619 27.2974 48.2887 27.5941 48.2887L27.5929 48.2875Z" fill="#A82EFF"/>
<path d="M12.151 47.9809C12.348 48.1791 12.6115 48.2875 12.8909 48.2875C13.1704 48.2875 13.4339 48.1791 13.6309 47.9809C13.8279 47.7827 13.9375 47.5204 13.9375 47.2409C13.9375 46.9614 13.8291 46.6979 13.6309 46.5009L9.90768 42.779C9.70207 42.5733 9.58879 42.2889 9.59618 41.9971C9.60357 41.7066 9.73285 41.4283 9.94954 41.2338L13.8956 37.6952C14.3253 37.3099 14.361 36.6475 13.9756 36.2178C13.5903 35.7881 12.9279 35.7524 12.4982 36.1365L8.5521 39.675C7.9094 40.2512 7.52772 41.0762 7.5031 41.9405C7.4797 42.8036 7.81583 43.6494 8.42652 44.2589L12.1497 47.9809H12.151Z" fill="#A82EFF"/>
<path d="M15.9111 52.4058C16.0306 52.4514 16.1549 52.4735 16.2805 52.4735C16.7127 52.4735 17.1067 52.2014 17.2593 51.7964L24.3204 33.099C24.5248 32.5597 24.2515 31.9539 23.711 31.7495C23.1705 31.5452 22.5659 31.8197 22.3628 32.359L15.3017 51.0564C15.0973 51.5957 15.3706 52.2014 15.9111 52.4058Z" fill="#A82EFF"/>
<path d="M14.1566 12.8872C14.3018 12.9586 14.457 12.9943 14.617 12.9943C15.0196 12.9943 15.3792 12.7703 15.5565 12.4095C15.6796 12.1583 15.6981 11.8752 15.6082 11.6104C15.5195 11.3507 15.3373 11.1413 15.0948 11.017C15.0135 10.9604 14.0421 10.2327 14.0421 7.74686C14.0421 6.32602 14.7906 5.51218 15.6587 4.5703C16.4971 3.65919 17.4489 2.62496 17.4489 1.04776C17.4489 0.470317 16.9798 0.0012207 16.4023 0.0012207C15.8249 0.0012207 15.3558 0.470317 15.3558 1.04776C15.3558 1.80866 14.8374 2.37256 14.1184 3.15316C13.1519 4.20339 11.949 5.50972 11.949 7.74686C11.949 11.6892 13.93 12.7764 14.1566 12.8872Z" fill="#A82EFF"/>
<path d="M23.7034 12.8872C23.8487 12.9586 24.0038 12.9943 24.1651 12.9943C24.5677 12.9943 24.9273 12.7703 25.1046 12.4095C25.2277 12.1583 25.2462 11.8752 25.1563 11.6104C25.0676 11.3507 24.8854 11.1401 24.6428 11.017C24.5604 10.9591 23.5902 10.2315 23.5902 7.74686C23.5902 6.32602 24.3387 5.51218 25.2068 4.5703C26.0452 3.65919 26.997 2.62619 26.997 1.04776C26.997 0.470317 26.5279 0.0012207 25.9504 0.0012207C25.373 0.0012207 24.9039 0.470317 24.9039 1.04776C24.9039 1.80866 24.3855 2.37256 23.6665 3.15316C22.7 4.20339 21.4971 5.50972 21.4971 7.74686C21.4971 11.688 23.4769 12.7752 23.7047 12.8872H23.7034Z" fill="#A82EFF"/>
</g>
<defs>
<clipPath id="clip0_141_58">
<rect width="53.6728" height="66.89" fill="white"/>
</clipPath>
</defs>
</svg>
