<svg width="74" height="74" viewBox="0 0 74 74" fill="none" xmlns="http://www.w3.org/2000/svg">
<g id="Group 3">
<path id="Vector" d="M47.4955 63.4178C62.1016 57.6053 69.2302 41.0528 63.4177 26.4467C57.6053 11.8406 41.0528 4.71195 26.4467 10.5244C11.8406 16.3369 4.71194 32.8894 10.5244 47.4955C16.3369 62.1016 32.8894 69.2302 47.4955 63.4178Z" stroke="#A82EFF" stroke-width="2" stroke-miterlimit="10"/>
<path id="Vector_2" d="M36.9704 65.4347C43.5479 65.4347 48.8801 52.691 48.8801 36.9709C48.8801 21.2508 43.5479 8.50708 36.9704 8.50708C30.3928 8.50708 25.0607 21.2508 25.0607 36.9709C25.0607 52.691 30.3928 65.4347 36.9704 65.4347Z" stroke="#A82EFF" stroke-width="2" stroke-miterlimit="10"/>
<path id="Vector_3" d="M58.189 19.1514C52.9772 22.0635 45.4056 23.8962 36.9754 23.8962C28.5452 23.8962 20.9686 22.0635 15.7568 19.1514" stroke="#A82EFF" stroke-width="2" stroke-miterlimit="10"/>
<path id="Vector_4" d="M15.7568 54.7902C20.9686 51.8781 28.5402 50.0454 36.9704 50.0454C45.4006 50.0454 52.9873 51.8781 58.199 54.7952" stroke="#A82EFF" stroke-width="2" stroke-miterlimit="10"/>
<path id="Vector_5" d="M8.50659 36.9709H65.4393" stroke="#A82EFF" stroke-width="2" stroke-miterlimit="10"/>
</g>
</svg>
