<svg width="51" height="63" viewBox="0 0 51 63" fill="none" xmlns="http://www.w3.org/2000/svg">
<path id="Vector" d="M50.9785 43.5479V14.516L25.4904 0L0 14.516V43.5479L20.4665 55.204V61.2587H11.2565V62.9103H22.142V39.7136C22.9821 39.3833 23.5757 38.5763 23.5757 37.6325C23.5757 36.3961 22.556 35.3909 21.3043 35.3909C20.0525 35.3909 19.0329 36.3961 19.0329 37.6325C19.0329 38.5763 19.6288 39.3856 20.4689 39.7136V45.6101L15.0142 42.3728V34.7751L24.8945 27.5478L24.8777 10.6487C25.6628 10.2947 26.2085 9.51607 26.2085 8.61C26.2085 7.3736 25.1889 6.36843 23.9371 6.36843C22.6853 6.36843 21.6657 7.3736 21.6657 8.61C21.6657 9.59157 22.3119 10.4269 23.2047 10.7289L23.2142 21.5049L16.2828 17.0124V14.4145C17.0582 14.0582 17.5992 13.2819 17.5992 12.3853C17.5992 11.1489 16.5795 10.1437 15.3278 10.1437C14.076 10.1437 13.0564 11.1489 13.0564 12.3853C13.0564 13.3739 13.7098 14.2139 14.6121 14.5112V17.9043L23.219 23.4846V26.7172L15.0166 32.7199V25.0679C15.8304 24.7257 16.4048 23.9306 16.4048 23.0033C16.4048 21.7669 15.3852 20.7617 14.1334 20.7617C12.8816 20.7617 11.862 21.7669 11.862 23.0033C11.862 23.966 12.4795 24.7847 13.3436 25.1033V27.4085L8.03248 24.3836V21.7834C8.87258 21.453 9.46856 20.6461 9.46856 19.7022C9.46856 18.4658 8.44894 17.4607 7.19716 17.4607C5.94537 17.4607 4.92576 18.4658 4.92576 19.7022C4.92576 20.6461 5.52173 21.4554 6.36184 21.7834V25.3369L13.346 29.3174V41.3818L8.03487 38.2294V33.3452C8.87498 33.0148 9.47095 32.2079 9.47095 31.264C9.47095 30.0276 8.45133 29.0225 7.19955 29.0225C5.94777 29.0225 4.92815 30.0276 4.92815 31.264C4.92815 32.2079 5.52412 33.0172 6.36423 33.3452V39.1638L20.4785 47.5402V53.2999L1.67543 42.5946V15.4692L25.4904 1.90652L49.3054 15.4692V42.5946L30.7513 53.1607V47.5379L44.8655 39.1615V33.8147C45.7057 33.4844 46.3016 32.6774 46.3016 31.7336C46.3016 30.4972 45.282 29.492 44.0302 29.492C42.7784 29.492 41.7588 30.4972 41.7588 31.7336C41.7588 32.6774 42.3548 33.4867 43.1949 33.8147V38.2271L38.6234 40.9406V29.2136L45.5884 24.3978V20.3676C46.4285 20.0373 47.0245 19.2303 47.0245 18.2865C47.0245 17.0501 46.0048 16.0449 44.7531 16.0449C43.5013 16.0449 42.4817 17.0501 42.4817 18.2865C42.4817 19.2303 43.0776 20.0397 43.9177 20.3676V23.5389L37.5607 27.9347L35.306 26.7762V13.9969C36.1461 13.6665 36.7421 12.8596 36.7421 11.9157C36.7421 10.6793 35.7225 9.67416 34.4707 9.67416C33.2189 9.67416 32.1993 10.6793 32.1993 11.9157C32.1993 12.8596 32.7953 13.6689 33.6354 13.9969V22.5384L30.0476 20.4148V18.716C30.8877 18.3856 31.4837 17.5787 31.4837 16.6348C31.4837 15.3984 30.4641 14.3933 29.2123 14.3933C27.9605 14.3933 26.9409 15.3984 26.9409 16.6348C26.9409 17.5787 27.5368 18.388 28.3769 18.716V21.3492L33.6402 24.4638V27.779L36.9623 29.4849V41.9363L30.7704 45.6125V35.2328C31.6105 34.9025 32.2065 34.0955 32.2065 33.1517C32.2065 31.9153 31.1869 30.9101 29.9351 30.9101C28.6833 30.9101 27.6637 31.9153 27.6637 33.1517C27.6637 34.0955 28.2597 34.9025 29.0974 35.2328V63H39.9829V61.3483H30.7728V55.0719L51 43.5526L50.9785 43.5479ZM15.323 11.5571C15.7849 11.5571 16.1607 11.9275 16.1607 12.3829C16.1607 12.8383 15.7849 13.2088 15.323 13.2088C14.861 13.2088 14.4853 12.8383 14.4853 12.3829C14.4853 11.9275 14.861 11.5571 15.323 11.5571ZM23.9347 7.7818C24.3966 7.7818 24.7724 8.15225 24.7724 8.60764C24.7724 9.06303 24.3966 9.43348 23.9347 9.43348C23.4727 9.43348 23.097 9.06303 23.097 8.60764C23.097 8.15225 23.4727 7.7818 23.9347 7.7818ZM7.18998 18.8717C7.65192 18.8717 8.02769 19.2421 8.02769 19.6975C8.02769 20.1529 7.65192 20.5234 7.18998 20.5234C6.72804 20.5234 6.35226 20.1529 6.35226 19.6975C6.35226 19.2421 6.72804 18.8717 7.18998 18.8717ZM14.1262 22.1751C14.5882 22.1751 14.964 22.5455 14.964 23.0009C14.964 23.4563 14.5882 23.8267 14.1262 23.8267C13.6643 23.8267 13.2885 23.4563 13.2885 23.0009C13.2885 22.5455 13.6643 22.1751 14.1262 22.1751ZM7.18998 30.4335C7.65192 30.4335 8.02769 30.8039 8.02769 31.2593C8.02769 31.7147 7.65192 32.0852 7.18998 32.0852C6.72804 32.0852 6.35226 31.7147 6.35226 31.2593C6.35226 30.8039 6.72804 30.4335 7.18998 30.4335ZM21.3043 36.8043C21.7662 36.8043 22.142 37.1747 22.142 37.6301C22.142 38.0855 21.7662 38.456 21.3043 38.456C20.8423 38.456 20.4665 38.0855 20.4665 37.6301C20.4665 37.1747 20.8423 36.8043 21.3043 36.8043ZM44.0302 30.9054C44.4922 30.9054 44.8679 31.2758 44.8679 31.7312C44.8679 32.1866 44.4922 32.5571 44.0302 32.5571C43.5683 32.5571 43.1925 32.1866 43.1925 31.7312C43.1925 31.2758 43.5683 30.9054 44.0302 30.9054ZM44.7483 17.456C45.2102 17.456 45.586 17.8264 45.586 18.2818C45.586 18.7372 45.2102 19.1076 44.7483 19.1076C44.2863 19.1076 43.9106 18.7372 43.9106 18.2818C43.9106 17.8264 44.2863 17.456 44.7483 17.456ZM29.2003 15.8043C29.6622 15.8043 30.038 16.1747 30.038 16.6301C30.038 17.0855 29.6622 17.456 29.2003 17.456C28.7384 17.456 28.3626 17.0855 28.3626 16.6301C28.3626 16.1747 28.7384 15.8043 29.2003 15.8043ZM34.4635 11.0852C34.9255 11.0852 35.3013 11.4556 35.3013 11.911C35.3013 12.3664 34.9255 12.7369 34.4635 12.7369C34.0016 12.7369 33.6258 12.3664 33.6258 11.911C33.6258 11.4556 34.0016 11.0852 34.4635 11.0852ZM29.9183 32.3211C30.3803 32.3211 30.7561 32.6916 30.7561 33.147C30.7561 33.6024 30.3803 33.9728 29.9183 33.9728C29.4564 33.9728 29.0806 33.6024 29.0806 33.147C29.0806 32.6916 29.4564 32.3211 29.9183 32.3211Z" fill="#A82EFF"/>
</svg>
