<svg xmlns="http://www.w3.org/2000/svg" width="142" height="65" viewBox="0 0 142 65" fill="none">
  <g clip-path="url(#clip0_25_256)">
    <path
      d="M47.9519 41.3676V13.7892L23.9784 0L0 13.7892V41.3676L19.2532 52.44V58.1908H10.5912V59.7614H20.8299V37.724C21.6183 37.4118 22.1814 36.6412 22.1814 35.7485C22.1814 34.573 21.2217 33.617 20.0416 33.617C18.8615 33.617 17.9018 34.573 17.9018 35.7485C17.9018 36.646 18.46 37.4118 19.2532 37.7289V43.3285L14.1217 40.2506V33.0317L23.4153 26.1639L23.4006 10.1114C24.14 9.77488 24.6541 9.03347 24.6541 8.175C24.6541 6.99948 23.6944 6.04345 22.5143 6.04345C21.3343 6.04345 20.3746 6.99948 20.3746 8.175C20.3746 9.10663 20.9817 9.9017 21.8239 10.1895L21.8337 20.4277L15.3115 16.1598V13.6917C16.0411 13.3502 16.5503 12.6186 16.5503 11.765C16.5503 10.5894 15.5906 9.63342 14.4106 9.63342C13.2305 9.63342 12.2708 10.5894 12.2708 11.765C12.2708 12.7064 12.8828 13.5014 13.7348 13.7843V17.0085L21.8337 22.3105V25.3835L14.1168 31.0855V23.8177C14.8855 23.4958 15.4241 22.7349 15.4241 21.8569C15.4241 20.6814 14.4644 19.7253 13.2843 19.7253C12.1043 19.7253 11.1446 20.6814 11.1446 21.8569C11.1446 22.769 11.7272 23.5495 12.5401 23.8519V26.0419L7.54559 23.169V20.7009C8.33393 20.3887 8.89703 19.618 8.89703 18.7254C8.89703 17.5499 7.93731 16.5939 6.75724 16.5939C5.57717 16.5939 4.61745 17.5499 4.61745 18.7254C4.61745 19.6229 5.17565 20.3887 5.9689 20.7009V24.0762L12.5401 27.8564V39.3141L7.54559 36.3192V31.6805C8.33393 31.3684 8.89703 30.5977 8.89703 29.7051C8.89703 28.5296 7.93731 27.5735 6.75724 27.5735C5.57717 27.5735 4.61745 28.5296 4.61745 29.7051C4.61745 30.6026 5.17565 31.3684 5.9689 31.6805V37.207L19.2434 45.1625V50.6352L1.57669 40.4653V14.6965L23.9784 1.80962L46.3801 14.6916V40.4604L28.9288 50.4986V45.1576L42.2034 37.2021V32.1244C42.9917 31.8122 43.5548 31.0416 43.5548 30.149C43.5548 28.9734 42.5951 28.0174 41.415 28.0174C40.235 28.0174 39.2752 28.9734 39.2752 30.149C39.2752 31.0465 39.8335 31.8122 40.6267 32.1244V36.3143L36.3275 38.8946V27.754L42.8791 23.1787V19.3498C43.6674 19.0376 44.2306 18.2669 44.2306 17.3743C44.2306 16.1988 43.2708 15.2428 42.0908 15.2428C40.9107 15.2428 39.951 16.1988 39.951 17.3743C39.951 18.2718 40.5092 19.0376 41.3024 19.3498V22.3642L35.3237 26.5395L33.2035 25.4371V13.2966C33.9919 12.9844 34.555 12.2137 34.555 11.3211C34.555 10.1456 33.5952 9.18956 32.4152 9.18956C31.2351 9.18956 30.2754 10.1456 30.2754 11.3211C30.2754 12.2186 30.8336 12.9844 31.6268 13.2966V21.4081L28.2531 19.3888V17.7743C29.0414 17.4621 29.6046 16.6914 29.6046 15.7988C29.6046 14.6233 28.6448 13.6673 27.4648 13.6673C26.2847 13.6673 25.325 14.6233 25.325 15.7988C25.325 16.6963 25.8832 17.4621 26.6764 17.7743V20.2765L31.6268 23.2373V26.3883L34.7508 28.0077V39.836L28.9239 43.3285V33.4707C29.7123 33.1585 30.2754 32.3878 30.2754 31.4903C30.2754 30.3148 29.3157 29.3588 28.1356 29.3588C26.9555 29.3588 25.9958 30.3148 25.9958 31.4903C25.9958 32.3878 26.554 33.1536 27.3472 33.4658V59.8443H37.5859V58.2737H28.9239V52.3131L47.9519 41.3676ZM14.4154 10.9797C14.8512 10.9797 15.2038 11.3309 15.2038 11.765C15.2038 12.1991 14.8512 12.5503 14.4154 12.5503C13.9797 12.5503 13.6271 12.1991 13.6271 11.765C13.6271 11.3309 13.9797 10.9797 14.4154 10.9797ZM22.5143 7.39457C22.9501 7.39457 23.3027 7.74576 23.3027 8.17987C23.3027 8.61399 22.9501 8.96518 22.5143 8.96518C22.0786 8.96518 21.726 8.61399 21.726 8.17987C21.726 7.74576 22.0786 7.39457 22.5143 7.39457ZM6.76214 17.9304C7.19793 17.9304 7.55048 18.2816 7.55048 18.7157C7.55048 19.1498 7.19793 19.501 6.76214 19.501C6.32634 19.501 5.97379 19.1498 5.97379 18.7157C5.97379 18.2816 6.32634 17.9304 6.76214 17.9304ZM13.2892 21.0667C13.725 21.0667 14.0776 21.4179 14.0776 21.852C14.0776 22.2861 13.725 22.6373 13.2892 22.6373C12.8534 22.6373 12.5009 22.2861 12.5009 21.852C12.5009 21.4179 12.8534 21.0667 13.2892 21.0667ZM6.76214 28.91C7.19793 28.91 7.55048 29.2612 7.55048 29.6953C7.55048 30.1294 7.19793 30.4806 6.76214 30.4806C6.32634 30.4806 5.97379 30.1294 5.97379 29.6953C5.97379 29.2612 6.32634 28.91 6.76214 28.91ZM20.0367 34.9632C20.4725 34.9632 20.825 35.3144 20.825 35.7485C20.825 36.1827 20.4725 36.5338 20.0367 36.5338C19.6009 36.5338 19.2483 36.1827 19.2483 35.7485C19.2483 35.3144 19.6009 34.9632 20.0367 34.9632ZM41.415 29.3588C41.8508 29.3588 42.2034 29.71 42.2034 30.1441C42.2034 30.5782 41.8508 30.9294 41.415 30.9294C40.9792 30.9294 40.6267 30.5782 40.6267 30.1441C40.6267 29.71 40.9792 29.3588 41.415 29.3588ZM42.0908 16.5841C42.5266 16.5841 42.8791 16.9353 42.8791 17.3694C42.8791 17.8035 42.5266 18.1547 42.0908 18.1547C41.655 18.1547 41.3024 17.8035 41.3024 17.3694C41.3024 16.9353 41.655 16.5841 42.0908 16.5841ZM27.4648 15.0135C27.9006 15.0135 28.2531 15.3647 28.2531 15.7988C28.2531 16.2329 27.9006 16.5841 27.4648 16.5841C27.029 16.5841 26.6764 16.2329 26.6764 15.7988C26.6764 15.3647 27.029 15.0135 27.4648 15.0135ZM32.4152 10.5309C32.851 10.5309 33.2035 10.8821 33.2035 11.3162C33.2035 11.7503 32.851 12.1015 32.4152 12.1015C31.9794 12.1015 31.6268 11.7503 31.6268 11.3162C31.6268 10.8821 31.9794 10.5309 32.4152 10.5309ZM28.1405 30.705C28.5763 30.705 28.9288 31.0562 28.9288 31.4903C28.9288 31.9244 28.5763 32.2756 28.1405 32.2756C27.7047 32.2756 27.3521 31.9244 27.3521 31.4903C27.3521 31.0562 27.7047 30.705 28.1405 30.705Z"
      fill="#A82EFF" />
    <path
      d="M69.4967 22.2666C69.4967 26.0224 66.6518 26.6029 64.2525 26.6029H63.1703L63.1899 30.0514H60.4136V18.0962H64.2525C66.9113 18.0962 69.4967 18.5401 69.4967 22.2617V22.2666ZM66.6665 22.3008C66.6665 20.6765 66.2894 20.4375 64.2476 20.4375H63.1997V24.2957H64.2476C66.2209 24.2957 66.6665 24.0714 66.6665 22.2959V22.3008Z"
      fill="#A82EFF" />
    <path
      d="M74.7457 18.1011H77.5416L77.527 24.8128C77.527 27.1541 78.5405 27.9199 79.8577 27.9199C81.6939 27.9199 82.1885 27.1492 82.1885 24.8128V18.1011H84.9844V25.2079C84.9844 29.032 82.257 30.2611 79.8577 30.2611C77.4584 30.2611 74.7163 29.032 74.731 25.2079L74.7506 18.1011H74.7457Z"
      fill="#A82EFF" />
    <path
      d="M94.6405 26.2663H93.6465V30.0563H90.8506V18.1011H94.6895C97.3483 18.1011 99.9337 18.3742 99.9337 22.0959C99.9337 24.3152 98.9054 25.3932 97.5148 25.8712L101.065 30.0563H97.74L94.6356 26.2663H94.6405ZM94.6895 20.4424H93.6416V23.9592H94.6895C96.1487 23.9592 97.1084 23.7348 97.1084 22.13C97.1084 20.5253 96.2172 20.4375 94.6895 20.4375V20.4424Z"
      fill="#A82EFF" />
    <path
      d="M115.162 22.2666C115.162 26.0224 112.317 26.6029 109.918 26.6029H108.836L108.855 30.0514H106.079V18.0962H109.918C112.577 18.0962 115.162 18.5401 115.162 22.2617V22.2666ZM112.332 22.3008C112.332 20.6765 111.955 20.4375 109.913 20.4375H108.865V24.2957H109.913C111.886 24.2957 112.332 24.0714 112.332 22.2959V22.3008Z"
      fill="#A82EFF" />
    <path d="M128.329 27.7004V30.0563H120.269V18.1011H123.065V27.7004H128.329Z" fill="#A82EFF" />
    <path d="M136.344 20.457V22.9153H140.217V25.0518H136.344V27.7004H142V30.0563H133.548V18.1011H142V20.457H136.344Z"
      fill="#A82EFF" />
    <path d="M69.7613 40.2068H66.2994V49.806H63.5035V40.2068H60.0073V37.8508H69.7613V40.2068Z" fill="#A82EFF" />
    <path
      d="M78.6972 46.0112H77.7032V49.8011H74.9072V37.8459H78.7461C81.405 37.8459 83.9903 38.1191 83.9903 41.8408C83.9903 44.0601 82.9621 45.1381 81.5714 45.6161L85.1214 49.8011H81.7967L78.6923 46.0112H78.6972ZM78.7461 40.1872H77.6983V43.704H78.7461C80.2053 43.704 81.165 43.4797 81.165 41.8749C81.165 40.2702 80.2739 40.1824 78.7461 40.1824V40.1872Z"
      fill="#A82EFF" />
    <path
      d="M92.9317 40.2068V42.6651H96.8048V44.8015H92.9317V47.4501H98.5872V49.806H90.1357V37.8508H98.5872V40.2068H92.9317Z"
      fill="#A82EFF" />
    <path
      d="M107.058 40.2068V42.6651H110.931V44.8015H107.058V47.4501H112.714V49.806H104.262V37.8508H112.714V40.2068H107.058Z"
      fill="#A82EFF" />
  </g>
  <defs>
    <clipPath id="clip0_25_256">
      <rect width="142" height="65" fill="white" />
    </clipPath>
  </defs>
</svg>